<svg xmlns="http://www.w3.org/2000/svg" viewBox="130 880 360 300">
<!-- MyReply Favicon — M with speech bubble -->
<path fill="#1E8B8B" d="M 151.028 893.866 L 222.36 893.818 L 298.671 1011.34 C 251.012 1028.38 230.733 996.456 206.942 962.797 C 206.929 1025.04 197.654 1078.26 269.152 1103.82 C 269.271 1116.81 268.962 1120.63 265.767 1133.19 C 283.493 1124.58 288.369 1121.59 303.932 1109.92 C 335.354 1110.32 362.946 1104.89 386.607 1082.65 C 418.964 1052.22 411.139 1010.68 411.91 968.818 C 427.113 948.462 442.188 942.287 467.201 946.725 L 467.191 983.5 L 467.203 1154.82 L 411.663 1154.82 C 411.55 1129.57 411.59 1104.31 411.783 1079.06 C 386.796 1114.99 351.327 1126.19 309.515 1127.66 C 284.845 1144.54 267.096 1152.83 236.895 1155.29 C 245.076 1140.67 248.806 1131.68 252.488 1115.48 C 232.189 1106.77 219.976 1096.94 206.954 1079.47 L 206.998 1154.84 L 151.013 1154.81 L 151.028 893.866 z"/>
<path fill="#1E8B8B" d="M 447.275 893.414 C 453.276 892.991 461.077 893.359 467.233 893.489 L 467.216 936.228 C 420.869 924.484 399.783 964.794 380.643 998.487 C 355.506 1042.74 312.18 1071.89 263.485 1041.66 C 252.095 1033.73 245.599 1025.75 237.595 1014.67 C 316.476 1059.36 335.983 976.606 373.512 929.484 C 392.426 905.736 417.155 895.801 447.275 893.414 z"/>
</svg>