<?xml version="1.0" encoding="UTF-8"?>
<svg id="_Слой_1" data-name="Слой 1" xmlns="http://www.w3.org/2000/svg" viewBox="0 0 2048 2048">
  <defs>
    <style>
      .cls-1 {
        fill: #1a2332;
      }

      .cls-2 {
        fill: #1e8b8b;
      }
    </style>
  </defs>
  <path class="cls-1" d="M935.89,1059.81c21.92-9.8,40.12-23.48,47.95-46.78,15.23-45.33-.08-95.75-46.67-112.43-8.54-2.96-17.39-4.9-26.38-5.79-15.41-1.62-36.18-1.04-52.21-1.04l-82.9.19-.08,260.8,57.39.03v-85.57s42.67-.01,42.67-.01l55.52,85.64,32.32-.03,33.6.02c-20.63-31.53-41.04-63.21-61.22-95.03ZM919.82,1008.82c-20.84,14.48-60.09,10.16-86.83,10.06l.1-74.67c21.67-.1,44.45-1.13,65.9,1.22,33.11,3.62,41.71,40.57,20.83,63.39Z"/>
  <path class="cls-1" d="M1438.17,910.73c-28.44-19.58-61.97-17.03-94.78-16.99l-76.21.14-.06,260.94,57.95-.04v-80.74c19.29.05,46.91.87,65.38-1.28,27.21-4.72,49.9-13.09,66.28-36.75,25.96-37.5,20.43-98.45-18.56-125.29ZM1402.67,1012.91c-20.71,14.83-52.03,10.92-77.63,10.75l.04-79.46c18.69-.08,39.64-1.27,57.94,1.53,33.71,5.14,41.87,44.09,19.65,67.18Z"/>
  <path class="cls-2" d="M151.03,893.87l71.33-.05,76.31,117.52c-47.66,17.04-67.94-14.88-91.73-48.54-.01,62.24-9.29,115.46,62.21,141.02.12,12.99-.19,16.81-3.39,29.37,17.73-8.61,22.6-11.6,38.17-23.27,31.42.4,59.01-5.03,82.67-27.27,32.36-30.43,24.53-71.97,25.3-113.83,15.2-20.36,30.28-26.53,55.29-22.09v36.78s0,171.32,0,171.32h-55.54c-.11-25.25-.07-50.51.12-75.76-24.99,35.93-60.46,47.13-102.27,48.6-24.67,16.88-42.42,25.17-72.62,27.63,8.18-14.62,11.91-23.61,15.59-39.81-20.3-8.71-32.51-18.54-45.53-36.01l.04,75.37-55.99-.03v-260.94Z"/>
  <path class="cls-1" d="M1031.47,893.89h192.25s-.09,50.17-.09,50.17l-135.68.04.02,53.63,119.17.05-.06,50.18-112.33.02c-3.6.09-3.91-.53-6.36,1.19-1.38,11.98-.47,41.88-.42,55.15l138.47-.03c.28,16.71.17,33.74.23,50.48l-195.34.04.14-260.92Z"/>
  <path class="cls-2" d="M682.54,893.96l64.21-.14c-16.73,30.28-41,67.48-59.53,98.01l-36.99,60.73v102.21s-57.06.04-57.06.04l-.03-102.63c-20.55-34.62-41.38-69.06-62.51-103.33-10.26-16.73-24.21-38.09-33.29-55.02l64.96.02c19.54,31.75,42.28,71.58,60.02,104.16,18.4-33.82,40.6-70.79,60.22-104.05Z"/>
  <path class="cls-1" d="M1834.21,893.89l63.46-.08c-6.26,12.1-16.21,27.49-23.39,39.17-12.38,20-24.58,40.1-36.61,60.31-12.07,19.6-23.98,39.3-35.72,59.1v102.38s-57.04.02-57.04.02v-102.28c-31.45-52.71-64.89-105.79-95.74-158.61h64.77c20.01,32.4,40.71,70.29,60.1,103.76,19.76-34.76,39.82-69.35,60.17-103.77Z"/>
  <path class="cls-1" d="M1507.02,893.89l57.72-.02v209.08s125.05.05,125.05.05l.05,51.78-182.85.05.03-260.94Z"/>
  <path class="cls-2" d="M447.27,893.41c6-.42,13.8-.05,19.96.08l-.02,42.74c-46.35-11.74-67.43,28.57-86.57,62.26-25.14,44.25-68.46,73.4-117.16,43.17-11.39-7.93-17.89-15.91-25.89-26.99,78.88,44.69,98.39-38.06,135.92-85.19,18.91-23.75,43.64-33.68,73.76-36.07Z"/>
</svg>